<mxfile host="app.diagrams.net" modified="2021-08-11T05:53:18.139Z" agent="5.0 (Windows NT 10.0; Win64; x64) AppleWebKit/537.36 (KHTML, like Gecko) Chrome/80.0.3987.132 Safari/537.36" etag="25rlC8l8co4SFuDKJqqa" version="14.9.4" type="github">
  <diagram id="LKX4OvRe6VDWAZ0Fz87s" name="第 1 页">
    <mxGraphModel dx="1422" dy="713" grid="1" gridSize="10" guides="1" tooltips="1" connect="1" arrows="1" fold="1" page="1" pageScale="1" pageWidth="827" pageHeight="1169" math="0" shadow="0">
      <root>
        <mxCell id="0" />
        <mxCell id="1" parent="0" />
        <mxCell id="oo5crSJGMGlpb1dWaUvM-6" style="edgeStyle=orthogonalEdgeStyle;rounded=0;sketch=1;orthogonalLoop=1;jettySize=auto;html=1;exitX=0.5;exitY=1;exitDx=0;exitDy=0;entryX=0.5;entryY=0;entryDx=0;entryDy=0;" edge="1" parent="1" source="oo5crSJGMGlpb1dWaUvM-1" target="oo5crSJGMGlpb1dWaUvM-5">
          <mxGeometry relative="1" as="geometry" />
        </mxCell>
        <mxCell id="oo5crSJGMGlpb1dWaUvM-1" value="&lt;b&gt;加载XML或扫描Class&lt;/b&gt;" style="rounded=1;whiteSpace=wrap;html=1;strokeWidth=2;fillWeight=4;hachureGap=8;hachureAngle=45;fillColor=#1ba1e2;sketch=1;fontColor=#ffffff;fillStyle=solid;strokeColor=#006EAF;" vertex="1" parent="1">
          <mxGeometry x="126" y="200" width="140" height="40" as="geometry" />
        </mxCell>
        <mxCell id="oo5crSJGMGlpb1dWaUvM-4" style="edgeStyle=orthogonalEdgeStyle;rounded=0;orthogonalLoop=1;jettySize=auto;html=1;exitX=0.5;exitY=1;exitDx=0;exitDy=0;entryX=0.5;entryY=0;entryDx=0;entryDy=0;sketch=1;" edge="1" parent="1" source="oo5crSJGMGlpb1dWaUvM-2" target="oo5crSJGMGlpb1dWaUvM-1">
          <mxGeometry relative="1" as="geometry" />
        </mxCell>
        <mxCell id="oo5crSJGMGlpb1dWaUvM-2" value="&lt;b&gt;&lt;font style=&quot;font-size: 20px&quot; color=&quot;#33001a&quot;&gt;开始&lt;/font&gt;&lt;/b&gt;" style="ellipse;whiteSpace=wrap;html=1;strokeWidth=2;fillWeight=2;hachureGap=8;fillStyle=dots;sketch=1;shadow=0;strokeColor=#CC0000;fillColor=#FFCCCC;" vertex="1" parent="1">
          <mxGeometry x="136" y="90" width="120" height="60" as="geometry" />
        </mxCell>
        <mxCell id="oo5crSJGMGlpb1dWaUvM-9" style="rounded=0;sketch=1;orthogonalLoop=1;jettySize=auto;html=1;exitX=0.5;exitY=1;exitDx=0;exitDy=0;elbow=vertical;" edge="1" parent="1" source="oo5crSJGMGlpb1dWaUvM-5">
          <mxGeometry relative="1" as="geometry">
            <mxPoint x="286" y="360" as="targetPoint" />
          </mxGeometry>
        </mxCell>
        <mxCell id="oo5crSJGMGlpb1dWaUvM-5" value="&lt;b&gt;BeanDefinition&lt;/b&gt;" style="rounded=1;whiteSpace=wrap;html=1;strokeWidth=2;fillWeight=4;hachureGap=8;hachureAngle=45;fillColor=#1ba1e2;sketch=1;fontColor=#ffffff;fillStyle=solid;strokeColor=#006EAF;" vertex="1" parent="1">
          <mxGeometry x="126" y="280" width="140" height="40" as="geometry" />
        </mxCell>
        <mxCell id="oo5crSJGMGlpb1dWaUvM-13" style="edgeStyle=orthogonalEdgeStyle;rounded=0;sketch=1;orthogonalLoop=1;jettySize=auto;html=1;exitX=1;exitY=0.5;exitDx=0;exitDy=0;entryX=0;entryY=0.5;entryDx=0;entryDy=0;dashed=1;" edge="1" parent="1" source="oo5crSJGMGlpb1dWaUvM-7" target="oo5crSJGMGlpb1dWaUvM-12">
          <mxGeometry relative="1" as="geometry" />
        </mxCell>
        <mxCell id="oo5crSJGMGlpb1dWaUvM-17" style="edgeStyle=orthogonalEdgeStyle;rounded=0;sketch=1;orthogonalLoop=1;jettySize=auto;html=1;exitX=0.5;exitY=1;exitDx=0;exitDy=0;entryX=0.5;entryY=0;entryDx=0;entryDy=0;" edge="1" parent="1" source="oo5crSJGMGlpb1dWaUvM-7" target="oo5crSJGMGlpb1dWaUvM-15">
          <mxGeometry relative="1" as="geometry">
            <mxPoint x="286" y="430" as="targetPoint" />
          </mxGeometry>
        </mxCell>
        <mxCell id="oo5crSJGMGlpb1dWaUvM-7" value="&lt;b&gt;BeanFactoryPostProcessor update BeanDefinition&lt;/b&gt;" style="rounded=1;whiteSpace=wrap;html=1;strokeWidth=2;fillWeight=4;hachureGap=8;hachureAngle=45;fillColor=#1ba1e2;sketch=1;fontColor=#ffffff;fillStyle=solid;strokeColor=#006EAF;" vertex="1" parent="1">
          <mxGeometry x="126" y="360" width="320" height="40" as="geometry" />
        </mxCell>
        <mxCell id="oo5crSJGMGlpb1dWaUvM-10" value="在所有的 BeanDefinition 加载完成后，实例化 Bean 对象之前，提供修改 BeanDefinition 属性的机制。" style="text;whiteSpace=wrap;html=1;" vertex="1" parent="1">
          <mxGeometry x="516" y="358" width="280" height="50" as="geometry" />
        </mxCell>
        <mxCell id="oo5crSJGMGlpb1dWaUvM-11" value="&lt;pre style=&quot;color: rgb(0 , 0 , 0) ; font-size: 10.5pt&quot;&gt;&lt;span style=&quot;&quot;&gt;&lt;span style=&quot;color: rgb(128 , 128 , 0)&quot;&gt;@Value&lt;/span&gt;(&lt;span style=&quot;color: rgb(0 , 128 , 0) ; font-weight: bold&quot;&gt;&quot;${token}&quot;&lt;/span&gt;)&lt;/span&gt;&lt;/pre&gt;" style="text;whiteSpace=wrap;html=1;labelBackgroundColor=none;" vertex="1" parent="1">
          <mxGeometry x="506" y="320" width="160" height="30" as="geometry" />
        </mxCell>
        <mxCell id="oo5crSJGMGlpb1dWaUvM-12" value="" style="shape=ext;double=1;rounded=1;whiteSpace=wrap;html=1;shadow=0;labelBackgroundColor=none;sketch=1;fillColor=none;gradientDirection=south;strokeColor=#333333;" vertex="1" parent="1">
          <mxGeometry x="506" y="360" width="300" height="40" as="geometry" />
        </mxCell>
        <mxCell id="oo5crSJGMGlpb1dWaUvM-20" style="edgeStyle=none;rounded=0;sketch=1;orthogonalLoop=1;jettySize=auto;html=1;exitX=0.5;exitY=1;exitDx=0;exitDy=0;entryX=0.5;entryY=0;entryDx=0;entryDy=0;" edge="1" parent="1" source="oo5crSJGMGlpb1dWaUvM-15" target="oo5crSJGMGlpb1dWaUvM-19">
          <mxGeometry relative="1" as="geometry" />
        </mxCell>
        <mxCell id="oo5crSJGMGlpb1dWaUvM-15" value="&lt;b&gt;resolveBeforeInstantiation&lt;br&gt;InstantiationAwareBeanPostProcessor&lt;/b&gt;" style="rounded=1;whiteSpace=wrap;html=1;strokeWidth=2;fillWeight=4;hachureGap=8;hachureAngle=45;fillColor=#1ba1e2;sketch=1;fontColor=#ffffff;fillStyle=solid;strokeColor=#006EAF;" vertex="1" parent="1">
          <mxGeometry x="126" y="440" width="320" height="40" as="geometry" />
        </mxCell>
        <mxCell id="oo5crSJGMGlpb1dWaUvM-24" style="edgeStyle=none;rounded=0;sketch=1;orthogonalLoop=1;jettySize=auto;html=1;exitX=0.5;exitY=1;exitDx=0;exitDy=0;entryX=0.5;entryY=0;entryDx=0;entryDy=0;" edge="1" parent="1" source="oo5crSJGMGlpb1dWaUvM-19" target="oo5crSJGMGlpb1dWaUvM-21">
          <mxGeometry relative="1" as="geometry" />
        </mxCell>
        <mxCell id="oo5crSJGMGlpb1dWaUvM-19" value="&lt;b&gt;Bean 实例化&lt;/b&gt;" style="rounded=1;whiteSpace=wrap;html=1;strokeWidth=2;fillWeight=4;hachureGap=8;hachureAngle=45;fillColor=#1ba1e2;sketch=1;fontColor=#ffffff;fillStyle=solid;strokeColor=#006EAF;" vertex="1" parent="1">
          <mxGeometry x="126" y="520" width="140" height="40" as="geometry" />
        </mxCell>
        <mxCell id="oo5crSJGMGlpb1dWaUvM-23" style="edgeStyle=none;rounded=0;sketch=1;orthogonalLoop=1;jettySize=auto;html=1;exitX=1;exitY=0.5;exitDx=0;exitDy=0;entryX=0;entryY=0.5;entryDx=0;entryDy=0;dashed=1;" edge="1" parent="1" source="oo5crSJGMGlpb1dWaUvM-21" target="oo5crSJGMGlpb1dWaUvM-22">
          <mxGeometry relative="1" as="geometry" />
        </mxCell>
        <mxCell id="oo5crSJGMGlpb1dWaUvM-27" style="edgeStyle=none;rounded=0;sketch=1;orthogonalLoop=1;jettySize=auto;html=1;exitX=0.5;exitY=1;exitDx=0;exitDy=0;entryX=0.5;entryY=0;entryDx=0;entryDy=0;fontColor=#000000;" edge="1" parent="1" source="oo5crSJGMGlpb1dWaUvM-21" target="oo5crSJGMGlpb1dWaUvM-26">
          <mxGeometry relative="1" as="geometry" />
        </mxCell>
        <mxCell id="oo5crSJGMGlpb1dWaUvM-21" value="&lt;b&gt;InstantiationAwareBeanPostProcessor&lt;/b&gt;" style="rounded=1;whiteSpace=wrap;html=1;strokeWidth=2;fillWeight=4;hachureGap=8;hachureAngle=45;sketch=1;fillStyle=solid;strokeColor=#36393d;fillColor=#ffcc99;" vertex="1" parent="1">
          <mxGeometry x="126" y="600" width="320" height="40" as="geometry" />
        </mxCell>
        <mxCell id="oo5crSJGMGlpb1dWaUvM-22" value="postProcessAfterInstantiation" style="shape=ext;double=1;rounded=1;whiteSpace=wrap;html=1;shadow=0;labelBackgroundColor=none;sketch=1;fillColor=none;gradientDirection=south;strokeColor=#333333;" vertex="1" parent="1">
          <mxGeometry x="496" y="600" width="230" height="40" as="geometry" />
        </mxCell>
        <mxCell id="oo5crSJGMGlpb1dWaUvM-25" value="&lt;pre style=&quot;font-family: 宋体; font-size: 10.5pt;&quot;&gt;&lt;span style=&quot;font-style: italic;&quot;&gt;在 Bean 对象执行初始化方法之后，执行此方法&lt;/span&gt;&lt;/pre&gt;" style="text;whiteSpace=wrap;html=1;labelBackgroundColor=none;fontStyle=0;" vertex="1" parent="1">
          <mxGeometry x="496" y="560" width="320" height="35" as="geometry" />
        </mxCell>
        <mxCell id="oo5crSJGMGlpb1dWaUvM-29" style="edgeStyle=none;rounded=0;sketch=1;orthogonalLoop=1;jettySize=auto;html=1;exitX=1;exitY=0.5;exitDx=0;exitDy=0;entryX=0;entryY=0.5;entryDx=0;entryDy=0;fontColor=#000000;dashed=1;" edge="1" parent="1" source="oo5crSJGMGlpb1dWaUvM-26" target="oo5crSJGMGlpb1dWaUvM-28">
          <mxGeometry relative="1" as="geometry" />
        </mxCell>
        <mxCell id="oo5crSJGMGlpb1dWaUvM-33" style="edgeStyle=none;sketch=1;orthogonalLoop=1;jettySize=auto;html=1;exitX=0.5;exitY=1;exitDx=0;exitDy=0;entryX=0.5;entryY=0;entryDx=0;entryDy=0;fontColor=#000000;rounded=0;" edge="1" parent="1" source="oo5crSJGMGlpb1dWaUvM-26" target="oo5crSJGMGlpb1dWaUvM-32">
          <mxGeometry relative="1" as="geometry" />
        </mxCell>
        <mxCell id="oo5crSJGMGlpb1dWaUvM-26" value="&lt;b&gt;InstantiationAwareBeanPostProcessor&lt;/b&gt;" style="rounded=1;whiteSpace=wrap;html=1;strokeWidth=2;fillWeight=4;hachureGap=8;hachureAngle=45;sketch=1;fillStyle=solid;strokeColor=#36393d;fillColor=#ffcc99;" vertex="1" parent="1">
          <mxGeometry x="126" y="680" width="320" height="40" as="geometry" />
        </mxCell>
        <mxCell id="oo5crSJGMGlpb1dWaUvM-28" value="&lt;pre style=&quot;font-size: 10.5pt&quot;&gt;postProcessPropertyValues&lt;/pre&gt;" style="shape=ext;double=1;rounded=1;whiteSpace=wrap;html=1;shadow=0;labelBackgroundColor=none;sketch=1;fillColor=none;gradientDirection=south;strokeColor=#333333;" vertex="1" parent="1">
          <mxGeometry x="496" y="680" width="230" height="40" as="geometry" />
        </mxCell>
        <mxCell id="oo5crSJGMGlpb1dWaUvM-30" value="&lt;pre style=&quot;font-family: 宋体; font-size: 10.5pt;&quot;&gt;&lt;span style=&quot;font-style: italic;&quot;&gt;在 Bean 对象实例化完成后，设置属性操作之前执行此方法&lt;/span&gt;&lt;/pre&gt;" style="text;whiteSpace=wrap;html=1;labelBackgroundColor=none;" vertex="1" parent="1">
          <mxGeometry x="496" y="640" width="390" height="40" as="geometry" />
        </mxCell>
        <mxCell id="oo5crSJGMGlpb1dWaUvM-38" style="edgeStyle=none;rounded=0;sketch=1;orthogonalLoop=1;jettySize=auto;html=1;exitX=0.5;exitY=1;exitDx=0;exitDy=0;entryX=0.5;entryY=0;entryDx=0;entryDy=0;fontColor=#000000;" edge="1" parent="1" source="oo5crSJGMGlpb1dWaUvM-32" target="oo5crSJGMGlpb1dWaUvM-34">
          <mxGeometry relative="1" as="geometry" />
        </mxCell>
        <mxCell id="oo5crSJGMGlpb1dWaUvM-32" value="&lt;b&gt;设置属性&lt;/b&gt;" style="rounded=1;whiteSpace=wrap;html=1;strokeWidth=2;fillWeight=4;hachureGap=8;hachureAngle=45;fillColor=#1ba1e2;sketch=1;fontColor=#ffffff;fillStyle=solid;strokeColor=#006EAF;" vertex="1" parent="1">
          <mxGeometry x="126" y="760" width="140" height="40" as="geometry" />
        </mxCell>
        <mxCell id="oo5crSJGMGlpb1dWaUvM-37" style="edgeStyle=none;rounded=0;sketch=1;orthogonalLoop=1;jettySize=auto;html=1;exitX=1;exitY=0.5;exitDx=0;exitDy=0;entryX=0;entryY=0.5;entryDx=0;entryDy=0;fontColor=#000000;dashed=1;" edge="1" parent="1" source="oo5crSJGMGlpb1dWaUvM-34" target="oo5crSJGMGlpb1dWaUvM-36">
          <mxGeometry relative="1" as="geometry" />
        </mxCell>
        <mxCell id="oo5crSJGMGlpb1dWaUvM-47" style="edgeStyle=none;rounded=0;sketch=1;orthogonalLoop=1;jettySize=auto;html=1;exitX=0.5;exitY=1;exitDx=0;exitDy=0;fontColor=#FFFFFF;" edge="1" parent="1" source="oo5crSJGMGlpb1dWaUvM-34" target="oo5crSJGMGlpb1dWaUvM-41">
          <mxGeometry relative="1" as="geometry" />
        </mxCell>
        <mxCell id="oo5crSJGMGlpb1dWaUvM-34" value="&lt;b&gt;感知对象&lt;/b&gt;" style="rounded=1;whiteSpace=wrap;html=1;strokeWidth=2;fillWeight=4;hachureGap=8;hachureAngle=45;fillColor=#1ba1e2;sketch=1;fontColor=#ffffff;fillStyle=solid;strokeColor=#006EAF;" vertex="1" parent="1">
          <mxGeometry x="126" y="840" width="140" height="40" as="geometry" />
        </mxCell>
        <mxCell id="oo5crSJGMGlpb1dWaUvM-36" value="&lt;pre style=&quot;font-size: 14px&quot;&gt;&lt;font style=&quot;font-size: 14px&quot;&gt;BeanFactoryAware#&lt;/font&gt;setBeanFactory&lt;span style=&quot;background-color: rgb(255 , 255 , 255)&quot;&gt;&lt;br&gt;&lt;/span&gt;&lt;/pre&gt;" style="shape=ext;double=1;rounded=1;whiteSpace=wrap;html=1;shadow=0;labelBackgroundColor=none;sketch=1;fillColor=none;gradientDirection=south;strokeColor=#333333;" vertex="1" parent="1">
          <mxGeometry x="326" y="840" width="334" height="40" as="geometry" />
        </mxCell>
        <mxCell id="oo5crSJGMGlpb1dWaUvM-40" value="&lt;pre style=&quot;font-family: 宋体; font-size: 10.5pt;&quot;&gt;&lt;span style=&quot;font-style: italic;&quot;&gt;实现此接口，既能感知到所属的 BeanFactory&lt;/span&gt;&lt;/pre&gt;" style="text;whiteSpace=wrap;html=1;labelBackgroundColor=none;labelBorderColor=none;" vertex="1" parent="1">
          <mxGeometry x="326" y="795" width="310" height="60" as="geometry" />
        </mxCell>
        <mxCell id="oo5crSJGMGlpb1dWaUvM-46" style="edgeStyle=none;rounded=0;sketch=1;orthogonalLoop=1;jettySize=auto;html=1;exitX=1;exitY=0.5;exitDx=0;exitDy=0;entryX=0;entryY=0.5;entryDx=0;entryDy=0;dashed=1;fontColor=#FFFFFF;" edge="1" parent="1" source="oo5crSJGMGlpb1dWaUvM-41" target="oo5crSJGMGlpb1dWaUvM-45">
          <mxGeometry relative="1" as="geometry" />
        </mxCell>
        <mxCell id="oo5crSJGMGlpb1dWaUvM-53" style="edgeStyle=isometricEdgeStyle;rounded=0;sketch=1;orthogonalLoop=1;jettySize=auto;html=1;exitX=1;exitY=0.5;exitDx=0;exitDy=0;entryX=0;entryY=0.5;entryDx=0;entryDy=0;dashed=1;fontColor=#FFFFFF;elbow=vertical;" edge="1" parent="1" source="oo5crSJGMGlpb1dWaUvM-41" target="oo5crSJGMGlpb1dWaUvM-52">
          <mxGeometry relative="1" as="geometry" />
        </mxCell>
        <mxCell id="oo5crSJGMGlpb1dWaUvM-57" style="rounded=0;sketch=1;orthogonalLoop=1;jettySize=auto;html=1;exitX=0.5;exitY=1;exitDx=0;exitDy=0;entryX=0.5;entryY=0;entryDx=0;entryDy=0;fontColor=#000000;" edge="1" parent="1" source="oo5crSJGMGlpb1dWaUvM-41" target="oo5crSJGMGlpb1dWaUvM-48">
          <mxGeometry relative="1" as="geometry" />
        </mxCell>
        <mxCell id="oo5crSJGMGlpb1dWaUvM-41" value="&lt;span style=&quot;text-align: left;&quot;&gt;BeanPostProcessor&lt;/span&gt;" style="rounded=1;whiteSpace=wrap;html=1;strokeWidth=2;fillWeight=4;hachureGap=8;hachureAngle=45;fillColor=#f0a30a;sketch=1;fillStyle=solid;strokeColor=#BD7000;fontColor=#000000;" vertex="1" parent="1">
          <mxGeometry x="126" y="920" width="140" height="40" as="geometry" />
        </mxCell>
        <mxCell id="oo5crSJGMGlpb1dWaUvM-45" value="&lt;pre style=&quot;font-size: 14px&quot;&gt;前置处理 | postProcessBeforeInitialization&lt;/pre&gt;" style="shape=ext;double=1;rounded=1;whiteSpace=wrap;html=1;shadow=0;labelBackgroundColor=none;sketch=1;fillColor=none;gradientDirection=south;strokeColor=#333333;" vertex="1" parent="1">
          <mxGeometry x="326" y="920" width="334" height="40" as="geometry" />
        </mxCell>
        <mxCell id="oo5crSJGMGlpb1dWaUvM-58" style="edgeStyle=none;rounded=0;sketch=1;orthogonalLoop=1;jettySize=auto;html=1;exitX=0.5;exitY=1;exitDx=0;exitDy=0;entryX=0.5;entryY=0;entryDx=0;entryDy=0;fontColor=#000000;" edge="1" parent="1" source="oo5crSJGMGlpb1dWaUvM-48" target="oo5crSJGMGlpb1dWaUvM-49">
          <mxGeometry relative="1" as="geometry" />
        </mxCell>
        <mxCell id="oo5crSJGMGlpb1dWaUvM-64" style="edgeStyle=none;rounded=0;sketch=1;orthogonalLoop=1;jettySize=auto;html=1;exitX=1;exitY=0.5;exitDx=0;exitDy=0;entryX=0;entryY=0.5;entryDx=0;entryDy=0;fontColor=#000000;dashed=1;" edge="1" parent="1" source="oo5crSJGMGlpb1dWaUvM-48" target="oo5crSJGMGlpb1dWaUvM-59">
          <mxGeometry relative="1" as="geometry" />
        </mxCell>
        <mxCell id="oo5crSJGMGlpb1dWaUvM-48" value="&lt;div style=&quot;text-align: left&quot;&gt;&lt;span&gt;初始化方法&lt;/span&gt;&lt;/div&gt;" style="rounded=1;whiteSpace=wrap;html=1;strokeWidth=2;fillWeight=4;hachureGap=8;hachureAngle=45;fillColor=#1ba1e2;sketch=1;fillStyle=solid;strokeColor=#006EAF;fontColor=#FFFFFF;" vertex="1" parent="1">
          <mxGeometry x="126" y="1060" width="140" height="40" as="geometry" />
        </mxCell>
        <mxCell id="oo5crSJGMGlpb1dWaUvM-51" style="edgeStyle=none;rounded=0;sketch=1;orthogonalLoop=1;jettySize=auto;html=1;exitX=1;exitY=0.5;exitDx=0;exitDy=0;entryX=0;entryY=0.5;entryDx=0;entryDy=0;fontColor=#FFFFFF;dashed=1;" edge="1" parent="1" source="oo5crSJGMGlpb1dWaUvM-49" target="oo5crSJGMGlpb1dWaUvM-50">
          <mxGeometry relative="1" as="geometry" />
        </mxCell>
        <mxCell id="oo5crSJGMGlpb1dWaUvM-70" style="edgeStyle=none;rounded=0;sketch=1;orthogonalLoop=1;jettySize=auto;html=1;exitX=0.5;exitY=1;exitDx=0;exitDy=0;entryX=0.5;entryY=0;entryDx=0;entryDy=0;fontColor=#000000;" edge="1" parent="1" source="oo5crSJGMGlpb1dWaUvM-49" target="oo5crSJGMGlpb1dWaUvM-69">
          <mxGeometry relative="1" as="geometry" />
        </mxCell>
        <mxCell id="oo5crSJGMGlpb1dWaUvM-49" value="&lt;span style=&quot;text-align: left;&quot;&gt;BeanPostProcessor&lt;/span&gt;" style="rounded=1;whiteSpace=wrap;html=1;strokeWidth=2;fillWeight=4;hachureGap=8;hachureAngle=45;fillColor=#f0a30a;sketch=1;fillStyle=solid;strokeColor=#BD7000;fontColor=#000000;" vertex="1" parent="1">
          <mxGeometry x="126" y="1210" width="140" height="40" as="geometry" />
        </mxCell>
        <mxCell id="oo5crSJGMGlpb1dWaUvM-50" value="&lt;pre style=&quot;font-size: 14px&quot;&gt;后置处理 | postProcessAfterInitialization&lt;/pre&gt;" style="shape=ext;double=1;rounded=1;whiteSpace=wrap;html=1;shadow=0;labelBackgroundColor=none;sketch=1;fillColor=none;gradientDirection=south;strokeColor=#333333;" vertex="1" parent="1">
          <mxGeometry x="326" y="1210" width="334" height="40" as="geometry" />
        </mxCell>
        <mxCell id="oo5crSJGMGlpb1dWaUvM-52" value="&lt;pre style=&quot;font-size: 14px&quot;&gt;&lt;pre style=&quot;text-align: left ; font-size: 10.5pt&quot;&gt;ApplicationContextAware#setpplicationContext&lt;/pre&gt;&lt;/pre&gt;" style="shape=ext;double=1;rounded=1;whiteSpace=wrap;html=1;shadow=0;labelBackgroundColor=none;sketch=1;fillColor=none;gradientDirection=south;strokeColor=#333333;" vertex="1" parent="1">
          <mxGeometry x="326" y="970" width="334" height="40" as="geometry" />
        </mxCell>
        <mxCell id="oo5crSJGMGlpb1dWaUvM-54" value="&lt;pre style=&quot;background-color: #ffffff ; color: #000000 ; font-family: &amp;#34;宋体&amp;#34; ; font-size: 10.5pt&quot;&gt;&lt;br&gt;&lt;/pre&gt;" style="text;whiteSpace=wrap;html=1;fontColor=#FFFFFF;" vertex="1" parent="1">
          <mxGeometry x="840" y="930" width="250" height="60" as="geometry" />
        </mxCell>
        <mxCell id="oo5crSJGMGlpb1dWaUvM-55" value="&lt;pre style=&quot;font-family: 宋体; font-size: 10.5pt;&quot;&gt;&lt;span style=&quot;font-style: italic;&quot;&gt;在 Bean 对象执行初始化方法之前，执行此方法&lt;/span&gt;&lt;/pre&gt;" style="text;whiteSpace=wrap;html=1;labelBackgroundColor=none;" vertex="1" parent="1">
          <mxGeometry x="333" y="877" width="320" height="60" as="geometry" />
        </mxCell>
        <mxCell id="oo5crSJGMGlpb1dWaUvM-56" value="&lt;pre style=&quot;font-family: 宋体; font-size: 10.5pt;&quot;&gt;&lt;span style=&quot;font-style: italic;&quot;&gt;在 Bean 对象执行初始化方法之后，执行此方法&lt;/span&gt;&lt;/pre&gt;" style="text;whiteSpace=wrap;html=1;labelBackgroundColor=none;" vertex="1" parent="1">
          <mxGeometry x="333" y="1169" width="320" height="60" as="geometry" />
        </mxCell>
        <mxCell id="oo5crSJGMGlpb1dWaUvM-63" style="edgeStyle=none;rounded=0;sketch=1;orthogonalLoop=1;jettySize=auto;html=1;exitX=0.5;exitY=1;exitDx=0;exitDy=0;entryX=0.5;entryY=0;entryDx=0;entryDy=0;fontColor=#000000;dashed=1;" edge="1" parent="1" source="oo5crSJGMGlpb1dWaUvM-59" target="oo5crSJGMGlpb1dWaUvM-62">
          <mxGeometry relative="1" as="geometry" />
        </mxCell>
        <mxCell id="oo5crSJGMGlpb1dWaUvM-59" value="&lt;pre style=&quot;font-size: 14px&quot;&gt;&lt;pre style=&quot;text-align: left ; font-size: 10.5pt&quot;&gt;&lt;pre style=&quot;font-size: 10.5pt&quot;&gt;InitializingBean&lt;/pre&gt;&lt;/pre&gt;&lt;/pre&gt;" style="shape=ext;double=1;rounded=1;whiteSpace=wrap;html=1;shadow=0;labelBackgroundColor=none;sketch=1;fillColor=none;gradientDirection=south;strokeColor=#333333;" vertex="1" parent="1">
          <mxGeometry x="326" y="1060" width="144" height="40" as="geometry" />
        </mxCell>
        <mxCell id="oo5crSJGMGlpb1dWaUvM-65" style="edgeStyle=none;rounded=0;sketch=1;orthogonalLoop=1;jettySize=auto;html=1;exitX=0;exitY=0.5;exitDx=0;exitDy=0;entryX=1;entryY=0.5;entryDx=0;entryDy=0;fontColor=#000000;dashed=1;" edge="1" parent="1" source="oo5crSJGMGlpb1dWaUvM-62" target="oo5crSJGMGlpb1dWaUvM-48">
          <mxGeometry relative="1" as="geometry" />
        </mxCell>
        <mxCell id="oo5crSJGMGlpb1dWaUvM-62" value="&lt;pre style=&quot;font-size: 14px&quot;&gt;&lt;pre style=&quot;text-align: left ; font-size: 10.5pt&quot;&gt;&lt;pre style=&quot;font-size: 10.5pt&quot;&gt;init-method&lt;/pre&gt;&lt;/pre&gt;&lt;/pre&gt;" style="shape=ext;double=1;rounded=1;whiteSpace=wrap;html=1;shadow=0;labelBackgroundColor=none;sketch=1;fillColor=none;gradientDirection=south;strokeColor=#333333;" vertex="1" parent="1">
          <mxGeometry x="326" y="1129" width="144" height="40" as="geometry" />
        </mxCell>
        <mxCell id="oo5crSJGMGlpb1dWaUvM-66" value="" style="shape=curlyBracket;whiteSpace=wrap;html=1;rounded=1;flipH=1;shadow=0;labelBackgroundColor=none;sketch=1;fontColor=#000000;strokeColor=#333333;fillColor=#009999;gradientDirection=south;" vertex="1" parent="1">
          <mxGeometry x="476" y="1060" width="20" height="110" as="geometry" />
        </mxCell>
        <mxCell id="oo5crSJGMGlpb1dWaUvM-68" value="Bean 处理了属性填充后调用，初始化执行方法" style="text;html=1;align=center;verticalAlign=middle;resizable=0;points=[];autosize=1;strokeColor=none;fontColor=#000000;" vertex="1" parent="1">
          <mxGeometry x="496" y="1105" width="260" height="20" as="geometry" />
        </mxCell>
        <mxCell id="oo5crSJGMGlpb1dWaUvM-72" style="edgeStyle=none;rounded=0;sketch=1;orthogonalLoop=1;jettySize=auto;html=1;exitX=0.5;exitY=1;exitDx=0;exitDy=0;entryX=0.5;entryY=0;entryDx=0;entryDy=0;fontColor=#000000;" edge="1" parent="1" source="oo5crSJGMGlpb1dWaUvM-69" target="oo5crSJGMGlpb1dWaUvM-71">
          <mxGeometry relative="1" as="geometry" />
        </mxCell>
        <mxCell id="oo5crSJGMGlpb1dWaUvM-69" value="&lt;div style=&quot;text-align: left&quot;&gt;使用Bean对象&lt;/div&gt;" style="rounded=1;whiteSpace=wrap;html=1;strokeWidth=2;fillWeight=4;hachureGap=8;hachureAngle=45;fillColor=#1ba1e2;sketch=1;fillStyle=solid;strokeColor=#006EAF;fontColor=#FFFFFF;" vertex="1" parent="1">
          <mxGeometry x="126" y="1300" width="140" height="40" as="geometry" />
        </mxCell>
        <mxCell id="oo5crSJGMGlpb1dWaUvM-74" style="edgeStyle=none;rounded=0;sketch=1;orthogonalLoop=1;jettySize=auto;html=1;exitX=0.5;exitY=1;exitDx=0;exitDy=0;entryX=0.5;entryY=0;entryDx=0;entryDy=0;fontColor=#000000;" edge="1" parent="1" source="oo5crSJGMGlpb1dWaUvM-71" target="oo5crSJGMGlpb1dWaUvM-73">
          <mxGeometry relative="1" as="geometry">
            <Array as="points">
              <mxPoint x="196" y="1450" />
            </Array>
          </mxGeometry>
        </mxCell>
        <object label="" 原型模式="" id="oo5crSJGMGlpb1dWaUvM-88">
          <mxCell style="edgeStyle=elbowEdgeStyle;rounded=0;sketch=1;orthogonalLoop=1;jettySize=auto;html=1;exitX=0;exitY=0.5;exitDx=0;exitDy=0;entryX=0;entryY=0.5;entryDx=0;entryDy=0;fontColor=#000000;elbow=vertical;" edge="1" parent="1" source="oo5crSJGMGlpb1dWaUvM-71" target="oo5crSJGMGlpb1dWaUvM-86">
            <mxGeometry relative="1" as="geometry">
              <Array as="points">
                <mxPoint x="110" y="1508" />
              </Array>
            </mxGeometry>
          </mxCell>
        </object>
        <mxCell id="oo5crSJGMGlpb1dWaUvM-89" value="原型模式" style="edgeLabel;html=1;align=center;verticalAlign=middle;resizable=0;points=[];fontColor=#000000;" vertex="1" connectable="0" parent="oo5crSJGMGlpb1dWaUvM-88">
          <mxGeometry x="0.0973" y="-1" relative="1" as="geometry">
            <mxPoint as="offset" />
          </mxGeometry>
        </mxCell>
        <mxCell id="oo5crSJGMGlpb1dWaUvM-71" value="Scope" style="rhombus;whiteSpace=wrap;html=1;strokeWidth=2;fillWeight=-1;hachureGap=8;fillStyle=solid;sketch=1;shadow=0;labelBackgroundColor=none;fillColor=#e51400;strokeColor=#B20000;fontColor=#ffffff;" vertex="1" parent="1">
          <mxGeometry x="136" y="1380" width="120" height="50" as="geometry" />
        </mxCell>
        <mxCell id="oo5crSJGMGlpb1dWaUvM-82" style="edgeStyle=none;rounded=0;sketch=1;orthogonalLoop=1;jettySize=auto;html=1;exitX=1;exitY=0.5;exitDx=0;exitDy=0;entryX=0;entryY=0.5;entryDx=0;entryDy=0;fontColor=#000000;dashed=1;" edge="1" parent="1" source="oo5crSJGMGlpb1dWaUvM-73" target="oo5crSJGMGlpb1dWaUvM-77">
          <mxGeometry relative="1" as="geometry" />
        </mxCell>
        <mxCell id="oo5crSJGMGlpb1dWaUvM-87" style="edgeStyle=none;rounded=0;sketch=1;orthogonalLoop=1;jettySize=auto;html=1;exitX=0.5;exitY=1;exitDx=0;exitDy=0;entryX=0.5;entryY=0;entryDx=0;entryDy=0;fontColor=#000000;" edge="1" parent="1" source="oo5crSJGMGlpb1dWaUvM-73" target="oo5crSJGMGlpb1dWaUvM-86">
          <mxGeometry relative="1" as="geometry" />
        </mxCell>
        <mxCell id="oo5crSJGMGlpb1dWaUvM-73" value="&lt;div style=&quot;text-align: left&quot;&gt;销毁Bean对象&lt;/div&gt;" style="rounded=1;whiteSpace=wrap;html=1;strokeWidth=2;fillWeight=4;hachureGap=8;hachureAngle=45;fillColor=#1ba1e2;sketch=1;fillStyle=solid;strokeColor=#006EAF;fontColor=#FFFFFF;" vertex="1" parent="1">
          <mxGeometry x="126" y="1470" width="140" height="40" as="geometry" />
        </mxCell>
        <mxCell id="oo5crSJGMGlpb1dWaUvM-76" style="edgeStyle=none;rounded=0;sketch=1;orthogonalLoop=1;jettySize=auto;html=1;exitX=0.5;exitY=1;exitDx=0;exitDy=0;entryX=0.5;entryY=0;entryDx=0;entryDy=0;fontColor=#000000;dashed=1;" edge="1" parent="1" source="oo5crSJGMGlpb1dWaUvM-77" target="oo5crSJGMGlpb1dWaUvM-79">
          <mxGeometry relative="1" as="geometry" />
        </mxCell>
        <mxCell id="oo5crSJGMGlpb1dWaUvM-77" value="&lt;pre style=&quot;font-size: 14px&quot;&gt;&lt;pre style=&quot;text-align: left ; font-size: 10.5pt&quot;&gt;&lt;pre style=&quot;font-size: 10.5pt&quot;&gt;&lt;pre style=&quot;font-size: 10.5pt&quot;&gt;DisposableBean#destroy&lt;/pre&gt;&lt;/pre&gt;&lt;/pre&gt;&lt;/pre&gt;" style="shape=ext;double=1;rounded=1;whiteSpace=wrap;html=1;shadow=0;labelBackgroundColor=none;sketch=1;fillColor=none;gradientDirection=south;strokeColor=#333333;" vertex="1" parent="1">
          <mxGeometry x="326" y="1470" width="194" height="40" as="geometry" />
        </mxCell>
        <mxCell id="oo5crSJGMGlpb1dWaUvM-83" style="edgeStyle=none;rounded=0;sketch=1;orthogonalLoop=1;jettySize=auto;html=1;exitX=0;exitY=0.5;exitDx=0;exitDy=0;entryX=1;entryY=0.5;entryDx=0;entryDy=0;fontColor=#000000;dashed=1;" edge="1" parent="1" source="oo5crSJGMGlpb1dWaUvM-79" target="oo5crSJGMGlpb1dWaUvM-73">
          <mxGeometry relative="1" as="geometry" />
        </mxCell>
        <mxCell id="oo5crSJGMGlpb1dWaUvM-79" value="&lt;pre style=&quot;font-size: 14px&quot;&gt;&lt;pre style=&quot;text-align: left ; font-size: 10.5pt&quot;&gt;&lt;pre style=&quot;font-size: 10.5pt&quot;&gt;destroy-method&lt;/pre&gt;&lt;/pre&gt;&lt;/pre&gt;" style="shape=ext;double=1;rounded=1;whiteSpace=wrap;html=1;shadow=0;labelBackgroundColor=none;sketch=1;fillColor=none;gradientDirection=south;strokeColor=#333333;" vertex="1" parent="1">
          <mxGeometry x="326" y="1539" width="194" height="40" as="geometry" />
        </mxCell>
        <mxCell id="oo5crSJGMGlpb1dWaUvM-80" value="" style="shape=curlyBracket;whiteSpace=wrap;html=1;rounded=1;flipH=1;shadow=0;labelBackgroundColor=none;sketch=1;fontColor=#000000;strokeColor=#333333;fillColor=#009999;gradientDirection=south;" vertex="1" parent="1">
          <mxGeometry x="530" y="1470" width="20" height="110" as="geometry" />
        </mxCell>
        <mxCell id="oo5crSJGMGlpb1dWaUvM-84" value="&lt;pre style=&quot;font-size: 10.5pt&quot;&gt;注册虚拟机钩子&lt;/pre&gt;&lt;pre style=&quot;font-size: 10.5pt&quot;&gt;Runtime.&lt;span style=&quot;font-style: italic&quot;&gt;getRuntime&lt;/span&gt;().addShutdownHook()&lt;/pre&gt;" style="text;html=1;align=left;verticalAlign=middle;resizable=0;points=[];autosize=1;strokeColor=none;fontColor=#000000;" vertex="1" parent="1">
          <mxGeometry x="560" y="1485" width="280" height="80" as="geometry" />
        </mxCell>
        <mxCell id="oo5crSJGMGlpb1dWaUvM-86" value="&lt;font color=&quot;#33001a&quot;&gt;&lt;span style=&quot;font-size: 20px&quot;&gt;&lt;b&gt;结束&lt;/b&gt;&lt;/span&gt;&lt;/font&gt;" style="ellipse;whiteSpace=wrap;html=1;strokeWidth=2;fillWeight=2;hachureGap=8;fillStyle=dots;sketch=1;shadow=0;strokeColor=#CC0000;fillColor=#FFCCCC;" vertex="1" parent="1">
          <mxGeometry x="136" y="1580" width="120" height="60" as="geometry" />
        </mxCell>
      </root>
    </mxGraphModel>
  </diagram>
</mxfile>
